# Blender v2.79 (sub 0) OBJ File: ''
# www.blender.org
mtllib SchreibtischBlocky.mtl
o Cube_Cube.001
v 2.000000 0.000000 -4.000000
v 2.000000 0.000000 -2.000000
v -0.000000 0.000000 -2.000000
v 0.000000 0.000000 -4.000000
v 2.000000 2.000000 -4.000000
v 1.999999 2.000000 -1.999999
v -0.000000 2.000000 -2.000000
v 2.000000 4.000000 -4.000000
v 1.999999 4.000000 -1.999999
v 0.000000 4.000000 -4.000000
v 1.999998 2.000000 0.000000
v 1.999998 4.000000 0.000000
v 1.999997 2.000000 2.000000
v -0.000002 2.000000 2.000000
v 1.999997 4.000000 2.000000
v 1.999997 2.000000 4.000000
v 1.999997 4.000000 4.000000
v -0.000003 4.000000 4.000000
v 1.999997 0.000000 2.000000
v -0.000002 0.000000 2.000000
v 1.999997 0.000000 4.000000
v -0.000003 0.000000 4.000000
v -2.000000 0.000000 -2.000001
v -2.000000 0.000000 -4.000001
v -2.000000 2.000000 -2.000001
v -2.000000 2.000000 -4.000001
v -2.000000 4.000000 -2.000001
v -2.000000 4.000000 -4.000001
v -2.000001 2.000000 -0.000001
v -2.000001 4.000000 -0.000001
v -2.000002 2.000000 1.999999
v -2.000002 4.000000 1.999999
v -2.000003 2.000000 3.999999
v -2.000003 4.000000 3.999999
v -2.000002 0.000000 1.999999
v -2.000003 0.000000 3.999999
vt 0.875236 0.874921
vt 0.875236 0.999843
vt 0.750314 0.999843
vt 0.750314 0.874921
vt 0.750314 0.750000
vt 0.875236 0.750000
vt 0.499843 0.999843
vt 0.374921 0.999843
vt 0.374921 0.874921
vt 0.374921 0.750000
vt 0.499843 0.750000
vt 0.499843 0.874921
vt 0.749686 0.000157
vt 0.749686 0.125079
vt 0.749686 0.250000
vt 0.624764 0.250000
vt 0.499843 0.250000
vt 0.374921 0.250000
vt 0.250000 0.250000
vt 0.250000 0.125079
vt 0.250000 0.000157
vt 0.374921 0.000157
vt 0.374921 0.125079
vt 0.499843 0.125079
vt 0.624764 0.125079
vt 0.624764 0.000157
vt 0.750000 0.750000
vt 0.750000 0.874921
vt 0.625079 0.874921
vt 0.500157 0.874921
vt 0.500157 0.750000
vt 0.625079 0.750000
vt 0.624764 0.499843
vt 0.749686 0.499843
vt 0.749686 0.624764
vt 0.749685 0.749686
vt 0.624764 0.749686
vt 0.624764 0.624764
vt 0.499843 0.624764
vt 0.374921 0.624764
vt 0.374921 0.749686
vt 0.250000 0.749686
vt 0.250000 0.624764
vt 0.250000 0.499843
vt 0.374921 0.499843
vt 0.499843 0.499843
vt 0.125079 0.250000
vt 0.250000 0.374921
vt 0.125079 0.499843
vt 0.000157 0.499843
vt 0.000157 0.374921
vt 0.000157 0.250000
vt 0.000157 0.874921
vt 0.000157 0.750000
vt 0.125079 0.750000
vt 0.125079 0.874921
vt 0.125079 0.999843
vt 0.000157 0.999843
vt 0.999528 0.374922
vt 0.999528 0.499843
vt 0.874607 0.499843
vt 0.749686 0.374921
vt 0.874607 0.250000
vt 0.999528 0.250000
vt 0.250000 0.999843
vt 0.250000 0.750000
vn 0.0000 -1.0000 0.0000
vn -0.0000 0.0000 1.0000
vn 1.0000 0.0000 0.0000
vn -1.0000 -0.0000 -0.0000
vn 0.0000 0.0000 -1.0000
vn 0.0000 1.0000 0.0000
usemtl Material.003
s off
f 20/1/1 19/2/1 21/3/1 22/4/1 36/5/1 35/6/1
f 2/7/2 6/8/2 7/9/2 25/10/2 23/11/2 3/12/2
f 1/13/3 5/14/3 8/15/3 9/16/3 12/17/3 15/18/3 17/19/3 16/20/3 21/21/3 19/22/3 13/23/3 11/24/3 6/25/3 2/26/3
f 1/27/1 2/28/1 3/29/1 23/30/1 24/31/1 4/32/1
f 27/33/4 28/34/4 26/35/4 24/36/4 23/37/4 25/38/4 29/39/4 31/40/4 35/41/4 36/42/4 33/43/4 34/44/4 32/45/4 30/46/4
f 16/47/2 17/19/2 18/48/2 34/44/2 33/49/2 36/50/2 22/51/2 21/52/2
f 20/53/5 35/54/5 31/55/5 14/56/5 13/57/5 19/58/5
f 4/59/5 24/60/5 26/61/5 28/34/5 10/62/5 8/15/5 5/63/5 1/64/5
f 10/62/6 28/34/6 27/33/6 30/46/6 32/45/6 34/44/6 18/48/6 17/19/6 15/18/6 12/17/6 9/16/6 8/15/6
f 7/9/1 6/8/1 11/65/1 13/57/1 14/56/1 31/55/1 29/66/1 25/10/1
